<svg xmlns="http://www.w3.org/2000/svg" width="1153.333" height="1153.333" preserveAspectRatio="xMidYMid meet" version="1.0" viewBox="0 0 865 865"><g fill="#000" stroke="none"><path d="M4015 8640 c-33 -5 -109 -14 -170 -20 -410 -43 -832 -155 -1238 -327 -188 -79 -502 -251 -686 -376 -96 -64 -328 -237 -363 -269 -7 -7 -49 -44 -93 -82 -109 -94 -311 -299 -416 -421 -314 -367 -572 -793 -749 -1240 -133 -336 -234 -747 -270 -1100 -6 -60 -16 -143 -21 -183 -12 -94 -12 -500 0 -594 5 -40 15 -122 21 -183 41 -400 155 -836 321 -1225 13 -30 58 -125 100 -210 471 -959 1291 -1713 2294 -2110 336 -133 747 -234 1100 -270 61 -6 143 -16 183 -21 94 -12 500 -12 594 0 40 5 123 15 183 21 401 41 835 155 1225 321 30 13 125 58 210 100 668 329 1238 824 1654 1436 401 590 647 1250 725 1943 6 52 15 136 21 186 13 118 13 500 0 618 -6 50 -15 134 -21 186 -55 491 -193 960 -412 1405 -341 691 -820 1242 -1457 1677 -251 172 -555 333 -845 448 -336 133 -747 234 -1100 270 -60 6 -143 16 -183 21 -86 11 -521 10 -607 -1z m705 -150 c280 -32 460 -64 655 -115 546 -143 1026 -375 1471 -713 141 -106 151 -115 299 -248 664 -602 1128 -1431 1289 -2304 57 -309 70 -454 70 -785 0 -331 -13 -476 -70 -785 -145 -786 -522 -1515 -1094 -2114 -79 -83 -244 -237 -335 -315 -94 -79 -425 -321 -440 -321 -3 0 -35 -20 -72 -44 -224 -143 -581 -307 -873 -400 -297 -95 -550 -147 -905 -187 -141 -16 -627 -16 -770 -1 -633 70 -1127 221 -1640 501 -185 101 -521 332 -667 458 -338 293 -597 586 -822 930 -45 71 -95 151 -111 178 -80 142 -98 177 -136 255 -198 409 -322 809 -383 1241 -33 230 -40 334 -40 604 0 270 7 374 40 604 122 858 509 1650 1116 2286 88 92 227 224 334 315 80 70 295 228 410 302 176 115 247 155 414 238 523 260 1068 402 1670 434 107 6 499 -4 590 -14z" transform="translate(0.000000,865.000000) scale(0.100000,-0.100000)"/><path d="M4260 8321 c-24 -18 -210 -126 -375 -219 -44 -25 -82 -47 -84 -48 -2 -2 4 -13 14 -24 12 -14 14 -20 5 -20 -7 0 -18 7 -25 16 -11 15 -18 13 -74 -20 -34 -20 -65 -36 -67 -36 -3 0 -18 -8 -32 -19 -15 -10 -47 -29 -72 -43 -50 -27 -574 -328 -630 -362 -20 -12 -55 -32 -78 -46 l-42 -25 0 -1932 c0 -1220 -4 -1934 -10 -1938 -9 -5 -96 38 -152 77 l-28 19 0 1830 c0 1006 -3 1829 -7 1829 -5 0 -37 -17 -73 -38 l-65 -38 -3 -1737 c-2 -1433 -4 -1739 -15 -1743 -15 -5 -131 56 -160 85 -17 16 -17 100 -17 1644 0 1149 -3 1627 -11 1627 -13 0 -97 -47 -121 -68 -17 -14 -18 -101 -18 -1554 l0 -1538 -21 0 c-12 0 -55 21 -95 46 l-74 46 0 827 c0 454 0 1102 0 1439 0 336 -2 612 -6 612 -7 0 -58 -29 -111 -64 l-33 -21 0 -1343 c0 -1497 6 -1379 -70 -1328 -22 14 -43 26 -48 26 -4 0 -22 12 -40 28 l-32 27 0 1238 c0 680 -3 1237 -5 1237 -11 0 -101 -49 -123 -66 l-22 -19 0 -1141 c0 -899 -3 -1144 -13 -1152 -9 -7 -34 3 -92 37 l-80 48 -3 1051 c-1 579 -5 1052 -8 1052 -5 0 -88 -49 -132 -78 -10 -7 -13 -198 -12 -960 0 -638 -3 -953 -10 -957 -8 -5 -112 46 -168 83 -10 7 -13 178 -12 860 0 478 -4 852 -9 852 -9 0 -120 -65 -133 -78 -4 -4 -8 -389 -9 -856 -1 -700 1 -851 13 -861 11 -11 122 -77 298 -177 19 -11 64 -37 100 -58 36 -21 81 -47 100 -58 35 -19 348 -199 405 -232 17 -9 138 -79 270 -155 132 -76 252 -146 267 -156 14 -11 28 -19 31 -19 3 0 32 -15 64 -34 109 -63 794 -457 831 -477 20 -12 62 -36 93 -55 31 -19 59 -34 63 -34 3 0 29 -15 58 -33 29 -19 74 -46 101 -60 26 -15 68 -39 95 -53 26 -15 58 -34 72 -44 14 -9 32 -20 40 -24 8 -3 42 -22 75 -41 33 -19 80 -45 105 -57 25 -13 47 -26 50 -29 7 -8 124 -78 183 -109 26 -14 47 -31 47 -37 0 -12 -70 -63 -87 -63 -5 0 -19 -9 -33 -20 -44 -35 -13 -49 -498 232 -46 26 -86 48 -90 48 -3 0 -13 6 -21 14 -9 7 -47 30 -86 51 -38 21 -74 41 -80 45 -8 6 -270 158 -380 220 -58 33 -241 138 -410 235 -93 54 -190 109 -215 123 -25 14 -49 28 -55 32 -5 4 -27 17 -47 29 -44 25 -24 13 -388 223 -157 90 -292 167 -300 171 -8 4 -28 15 -45 26 -16 10 -46 27 -65 38 -19 11 -96 55 -170 98 -74 43 -148 86 -165 95 -16 10 -70 40 -119 69 -49 28 -94 50 -99 48 -9 -3 -14 -154 -6 -161 3 -3 56 -34 121 -71 9 -5 115 -66 233 -135 119 -69 237 -137 263 -151 26 -14 162 -93 302 -174 140 -81 316 -182 390 -225 74 -42 212 -121 305 -175 94 -54 190 -110 215 -123 25 -14 93 -54 153 -89 59 -35 110 -63 114 -63 3 0 14 -6 22 -14 9 -7 46 -30 84 -50 37 -20 101 -57 143 -81 42 -25 77 -45 80 -45 2 0 28 -16 58 -35 30 -19 57 -35 60 -35 3 0 81 -44 173 -98 92 -55 198 -116 236 -136 37 -21 67 -44 67 -51 0 -12 -102 -77 -154 -98 -13 -5 -41 5 -95 37 -42 24 -92 53 -111 64 -19 11 -64 36 -100 57 -36 21 -83 48 -105 60 -22 13 -96 55 -165 95 -69 40 -145 83 -170 97 -25 14 -49 29 -55 33 -5 4 -46 26 -90 50 -44 23 -87 48 -95 55 -8 6 -37 24 -65 40 -62 34 -97 54 -255 145 -69 40 -145 84 -170 98 -25 14 -57 33 -72 43 -14 11 -28 19 -31 19 -3 0 -58 31 -123 68 -356 205 -741 427 -782 449 -73 41 -101 57 -182 105 -41 24 -82 47 -90 51 -8 4 -33 18 -55 32 -22 13 -45 24 -50 25 -9 0 -10 -37 -5 -161 0 -5 181 -112 405 -239 17 -9 107 -61 200 -115 94 -54 185 -106 203 -117 18 -10 93 -53 165 -95 119 -68 196 -113 380 -219 33 -19 61 -34 63 -34 2 0 27 -15 57 -32 29 -18 61 -38 72 -45 11 -7 74 -43 140 -80 66 -37 128 -72 137 -78 16 -10 79 -46 168 -97 25 -15 117 -68 205 -118 88 -51 180 -104 205 -118 25 -14 77 -44 115 -66 39 -23 81 -47 95 -54 43 -22 73 -49 67 -59 -10 -17 -144 -93 -162 -93 -10 0 -54 21 -99 46 -44 26 -100 57 -124 71 -23 13 -93 53 -154 89 -61 35 -112 64 -115 64 -2 0 -28 16 -58 35 -30 18 -89 53 -132 75 -43 23 -82 45 -88 50 -5 4 -26 17 -45 28 -29 16 -164 93 -405 232 -16 9 -89 51 -162 93 -72 42 -149 86 -170 98 -21 13 -77 45 -126 73 -48 28 -100 58 -115 66 -15 9 -55 32 -90 53 -35 20 -65 37 -68 37 -2 0 -22 11 -44 25 -32 20 -205 121 -405 235 -16 9 -46 27 -65 38 -19 12 -39 22 -45 22 -6 0 -9 -33 -9 -82 l2 -82 68 -42 c114 -67 386 -225 439 -253 28 -15 104 -59 170 -98 116 -68 354 -205 425 -246 19 -10 64 -36 100 -57 62 -36 91 -52 190 -108 25 -14 77 -44 115 -67 39 -22 77 -44 85 -48 8 -4 24 -13 35 -20 22 -13 231 -134 285 -165 278 -157 423 -245 427 -258 4 -12 -146 -104 -169 -104 -8 0 -22 6 -33 14 -11 7 -36 22 -55 33 -134 76 -251 143 -287 166 -24 15 -45 27 -48 27 -3 0 -24 11 -46 26 -53 33 -100 60 -175 99 -33 18 -78 44 -100 57 -21 14 -111 67 -199 117 -88 50 -167 96 -175 101 -8 5 -73 42 -145 83 -71 41 -159 91 -195 112 -36 20 -85 49 -110 63 -25 14 -57 33 -72 43 -14 11 -28 19 -31 19 -2 0 -56 30 -118 66 -63 36 -157 91 -209 121 -52 30 -110 63 -129 74 -18 11 -36 17 -39 14 -3 -3 -6 -39 -7 -80 -1 -57 2 -78 14 -88 14 -12 277 -165 419 -244 26 -15 80 -46 120 -70 41 -24 76 -43 78 -43 2 0 23 -11 45 -26 39 -24 67 -40 159 -92 25 -14 61 -35 80 -47 19 -12 42 -24 50 -28 8 -4 33 -18 55 -31 22 -14 51 -31 65 -39 43 -24 111 -62 240 -137 69 -40 145 -84 170 -98 25 -13 70 -39 100 -57 30 -18 71 -42 90 -53 19 -11 64 -36 100 -57 36 -21 81 -46 100 -57 65 -37 120 -73 120 -79 0 -10 -33 -35 -81 -62 -25 -13 -54 -30 -65 -37 -16 -10 -33 -4 -119 44 -55 31 -107 60 -115 66 -8 5 -28 16 -45 25 -16 8 -37 19 -45 25 -27 18 -334 195 -370 213 -19 10 -73 41 -120 70 -47 28 -110 65 -140 81 -30 17 -78 45 -107 63 -29 18 -54 33 -57 33 -5 0 -108 59 -366 210 -63 38 -137 80 -165 95 -27 15 -54 31 -60 35 -18 13 -145 80 -146 78 -4 -12 -3 -162 1 -167 3 -5 32 -23 65 -41 33 -18 65 -37 72 -42 6 -5 42 -26 80 -46 58 -31 148 -83 258 -149 11 -7 27 -16 35 -20 8 -4 69 -38 135 -76 66 -39 139 -80 162 -93 23 -13 92 -53 153 -89 61 -36 114 -65 117 -65 2 0 17 -8 31 -19 15 -10 47 -29 72 -43 25 -14 122 -69 215 -123 94 -54 191 -110 218 -124 49 -27 56 -46 22 -65 -11 -6 -43 -26 -72 -43 -53 -32 -96 -42 -108 -24 -3 5 -42 30 -88 55 -103 58 -166 94 -194 112 -12 7 -37 22 -55 32 -77 44 -736 422 -1002 576 -54 31 -103 55 -109 53 -9 -3 -15 -154 -6 -161 19 -13 308 -176 314 -176 5 0 16 -6 24 -14 14 -13 52 -35 191 -114 25 -14 59 -33 75 -42 17 -10 59 -34 95 -54 36 -20 72 -40 80 -46 8 -5 49 -28 90 -51 41 -23 86 -50 100 -59 14 -9 50 -30 80 -46 30 -15 66 -36 80 -45 14 -9 101 -60 195 -114 151 -86 172 -95 190 -84 26 16 184 109 211 123 12 6 29 19 38 29 10 9 26 17 36 17 10 0 22 4 25 10 3 5 27 20 53 33 26 13 88 47 137 77 90 53 261 151 345 198 25 14 92 53 150 87 58 35 128 74 155 89 28 15 77 43 110 63 33 19 78 46 100 58 56 32 354 203 390 224 17 10 57 33 90 51 33 18 71 41 85 50 14 9 30 19 35 21 6 2 57 31 113 64 127 74 167 97 279 160 48 27 96 54 105 60 16 10 266 154 352 204 23 13 70 40 106 61 36 21 81 47 100 58 19 11 80 46 135 77 161 93 193 110 200 104 3 -4 7 -48 8 -100 l2 -93 -40 -27 c-22 -14 -59 -37 -82 -50 -143 -81 -469 -269 -531 -306 -40 -24 -83 -48 -95 -53 -21 -10 -33 -17 -87 -51 -14 -9 -45 -27 -70 -41 -25 -14 -74 -42 -110 -63 -36 -21 -81 -46 -100 -57 -19 -11 -64 -37 -100 -58 -36 -21 -81 -47 -100 -57 -19 -11 -93 -54 -165 -95 -381 -220 -454 -262 -494 -286 -124 -70 -147 -83 -161 -92 -8 -6 -22 -13 -30 -17 -8 -4 -74 -42 -148 -85 -73 -43 -135 -78 -137 -78 -2 0 -32 -17 -67 -38 -72 -44 -182 -108 -248 -145 -25 -13 -72 -40 -105 -59 -33 -20 -117 -68 -187 -108 -71 -40 -128 -76 -128 -81 0 -4 20 -15 45 -24 24 -10 52 -26 61 -36 9 -11 25 -19 35 -19 10 0 74 33 141 73 110 66 216 127 318 184 72 41 266 152 405 233 17 9 80 45 140 80 61 34 157 90 214 124 57 33 135 78 175 100 39 21 139 78 223 127 83 49 167 97 185 108 18 10 62 35 98 56 36 21 80 46 98 56 121 69 183 105 222 127 25 14 57 33 72 43 14 11 29 19 32 19 3 0 43 22 88 49 93 55 125 73 218 125 36 20 72 40 80 46 8 5 65 37 125 71 61 34 125 73 143 86 39 29 67 27 66 -5 0 -12 -1 -58 -2 -102 -2 -67 -5 -82 -19 -87 -10 -4 -62 -33 -115 -65 -54 -32 -100 -58 -104 -58 -3 0 -18 -9 -33 -19 -14 -11 -47 -30 -71 -43 -64 -35 -113 -63 -159 -92 -22 -15 -43 -26 -45 -26 -2 0 -50 -27 -106 -60 -56 -33 -103 -60 -105 -60 -2 0 -92 -52 -201 -115 -108 -63 -198 -115 -200 -115 -2 0 -28 -16 -58 -35 -30 -19 -57 -35 -60 -35 -2 0 -50 -27 -106 -60 -56 -33 -103 -60 -106 -60 -2 0 -28 -16 -58 -35 -30 -19 -57 -35 -60 -35 -3 0 -54 -29 -113 -64 -60 -35 -142 -82 -183 -106 -41 -23 -91 -51 -110 -62 -19 -11 -64 -37 -100 -58 -36 -21 -81 -47 -100 -57 -19 -11 -91 -53 -160 -93 -69 -40 -140 -81 -158 -91 -144 -83 -184 -105 -232 -132 -90 -49 -90 -48 -11 -97 l71 -42 138 78 c75 43 146 84 157 90 11 6 97 55 190 109 326 188 340 196 693 397 18 10 43 25 55 33 29 18 378 220 442 255 52 28 62 34 210 120 50 29 108 62 130 75 22 12 99 56 172 98 140 82 182 105 253 145 25 14 57 33 72 43 14 11 29 19 32 19 3 0 35 18 72 40 82 51 97 45 88 -35 -4 -29 -2 -60 4 -71 16 -29 -6 -62 -67 -96 -78 -44 -295 -169 -424 -245 -59 -35 -109 -63 -111 -63 -3 0 -40 -21 -83 -46 -107 -64 -535 -310 -603 -347 -30 -17 -71 -41 -90 -54 -19 -12 -39 -23 -43 -23 -5 0 -21 -8 -35 -19 -15 -10 -47 -29 -72 -43 -25 -14 -101 -58 -170 -98 -69 -40 -140 -81 -158 -92 -18 -10 -66 -37 -105 -60 -40 -22 -110 -63 -157 -90 -47 -27 -92 -53 -100 -58 -36 -23 -257 -147 -272 -153 -24 -9 -22 -22 4 -35 13 -6 45 -25 73 -41 l50 -29 45 25 c25 14 50 29 55 33 6 4 30 19 55 32 25 14 90 51 145 83 125 72 173 100 205 118 193 109 413 235 525 302 119 70 231 135 393 227 28 16 93 53 327 188 58 33 174 100 212 121 21 12 93 53 161 93 208 120 216 125 227 116 8 -7 12 -105 6 -182 -1 -14 -75 -62 -246 -158 -22 -13 -60 -34 -84 -48 -24 -13 -104 -60 -178 -103 -75 -43 -136 -79 -138 -79 -1 0 -54 -30 -116 -67 -210 -122 -274 -159 -289 -166 -8 -4 -31 -17 -50 -29 -30 -18 -117 -68 -290 -166 -25 -14 -74 -43 -110 -65 -36 -22 -83 -50 -105 -62 -56 -32 -223 -126 -404 -230 l-154 -88 24 -18 c13 -10 47 -30 75 -45 l51 -27 44 26 c24 14 130 74 234 135 219 126 255 147 310 177 49 28 277 160 308 179 12 7 47 27 77 44 30 16 123 69 205 117 83 48 174 101 203 117 30 17 99 57 154 89 55 32 101 59 103 59 2 0 49 27 105 60 56 33 103 60 105 60 2 0 33 18 69 40 69 42 91 48 98 27 3 -6 4 -49 3 -95 -2 -93 -3 -95 -80 -137 -27 -15 -106 -60 -175 -100 -69 -40 -141 -82 -160 -93 -19 -11 -111 -63 -205 -117 -93 -54 -183 -105 -200 -115 -16 -9 -133 -76 -259 -148 -125 -73 -231 -132 -234 -132 -3 0 -13 -6 -21 -14 -9 -8 -41 -27 -71 -44 -133 -73 -396 -225 -408 -237 -12 -10 -9 -15 15 -27 68 -36 98 -54 101 -60 6 -14 22 -8 78 27 30 19 56 35 59 35 2 0 42 22 87 49 46 27 99 58 118 69 19 10 118 67 219 126 102 58 186 106 189 106 2 0 16 8 30 19 25 17 68 41 167 96 22 13 69 39 105 60 36 21 85 49 109 63 25 14 68 38 95 55 28 16 65 38 81 47 149 85 294 169 311 180 41 25 49 10 47 -86 -1 -49 -2 -92 -2 -96 -1 -9 -52 -42 -136 -88 -33 -17 -77 -45 -97 -61 -20 -16 -42 -29 -47 -29 -6 0 -59 -28 -119 -62 -59 -33 -150 -86 -202 -116 -52 -30 -113 -64 -135 -77 -22 -12 -89 -51 -150 -87 -60 -36 -131 -77 -157 -91 -26 -14 -116 -66 -200 -115 -84 -49 -172 -99 -195 -111 -24 -12 -43 -25 -43 -29 0 -5 23 -19 50 -32 28 -13 56 -30 62 -37 6 -7 18 -13 28 -13 10 0 91 43 181 96 90 54 209 123 264 154 55 31 240 137 410 235 171 98 326 187 345 198 19 10 40 23 45 27 6 4 46 27 90 51 44 23 99 55 123 71 l42 29 0 1934 c0 1387 3 1935 11 1935 13 0 131 -65 159 -88 20 -17 20 -19 20 -1844 0 -1006 3 -1828 6 -1828 3 0 26 12 52 28 26 15 56 32 67 37 20 11 20 16 23 1753 2 1576 4 1742 18 1742 18 0 155 -78 166 -94 4 -6 8 -743 8 -1638 0 -939 4 -1628 9 -1628 11 0 44 17 99 53 l42 27 0 603 c-1 2538 -2 2487 19 2487 11 0 23 -5 27 -11 3 -6 18 -16 33 -23 39 -17 101 -57 102 -64 0 -4 0 -654 1 -1444 0 -791 4 -1438 9 -1438 12 0 133 72 141 84 4 6 8 615 8 1354 0 1230 1 1342 16 1342 17 0 125 -61 157 -88 16 -14 17 -86 17 -1254 0 -984 3 -1238 13 -1237 6 0 39 17 72 38 l60 38 2 649 c1 357 2 875 3 1152 l0 502 23 0 c13 0 27 -4 33 -9 5 -5 32 -21 59 -36 28 -15 56 -34 63 -43 9 -12 12 -240 12 -1060 0 -574 3 -1042 8 -1040 4 2 37 20 75 41 l67 39 0 539 c0 466 -2 544 -15 570 -14 26 -14 30 0 35 13 5 15 54 15 390 0 318 2 384 14 384 16 0 151 -77 166 -95 7 -8 10 -286 10 -859 0 -532 4 -846 10 -846 5 0 25 10 43 23 19 12 49 30 66 39 l31 17 0 854 c0 963 9 860 -82 911 -94 51 -144 80 -216 123 -41 24 -76 43 -78 43 -3 0 -30 16 -60 35 -30 19 -56 35 -58 35 -2 0 -77 43 -166 95 -89 52 -164 95 -166 95 -2 0 -38 21 -81 46 -85 51 -88 53 -243 141 -58 33 -181 104 -275 158 -311 179 -619 357 -665 383 -139 78 -516 296 -525 302 -5 4 -35 21 -65 38 -30 16 -138 78 -240 137 -218 126 -270 157 -367 210 -40 22 -73 47 -73 55 0 16 139 100 165 100 16 0 332 -178 600 -337 11 -6 36 -19 55 -29 19 -10 47 -26 62 -36 14 -10 33 -18 41 -18 8 0 20 -7 27 -15 7 -9 58 -41 113 -73 55 -31 121 -69 146 -85 25 -15 55 -32 66 -37 11 -6 27 -14 35 -20 8 -5 71 -42 140 -81 69 -39 139 -79 155 -89 17 -9 77 -44 135 -77 58 -33 161 -92 229 -131 69 -40 126 -72 129 -72 2 0 16 -8 30 -19 15 -10 54 -33 87 -51 84 -47 107 -60 220 -127 55 -32 107 -62 115 -66 8 -4 33 -18 55 -31 22 -14 51 -31 65 -39 14 -7 72 -41 130 -74 58 -33 197 -113 310 -177 113 -65 209 -122 215 -127 27 -26 35 -8 35 74 l0 83 -87 51 c-164 95 -588 340 -643 370 -30 17 -109 62 -175 100 -66 38 -129 75 -140 81 -11 6 -54 31 -95 55 -41 24 -95 55 -120 69 -54 30 -418 240 -885 508 -126 73 -250 144 -275 158 -25 13 -49 28 -55 32 -5 4 -32 20 -60 36 -27 15 -66 36 -85 47 -19 10 -39 23 -45 27 -5 4 -30 18 -55 32 -179 99 -300 173 -300 184 0 8 10 20 23 27 12 7 46 28 75 45 29 18 59 32 65 32 7 0 75 -36 151 -80 76 -44 141 -80 146 -80 4 0 18 -8 31 -18 13 -11 44 -30 69 -44 60 -34 232 -133 300 -173 30 -18 75 -44 100 -57 51 -28 370 -212 415 -239 17 -10 55 -30 85 -45 30 -14 62 -32 70 -39 8 -7 42 -29 75 -48 33 -18 116 -66 185 -106 178 -104 183 -107 263 -152 40 -23 86 -49 102 -59 83 -47 255 -146 295 -168 25 -14 57 -33 72 -43 14 -11 29 -19 32 -19 3 0 40 -21 83 -46 43 -25 107 -62 143 -82 36 -19 72 -41 81 -48 8 -8 18 -14 22 -14 3 0 33 -16 66 -35 32 -19 62 -35 65 -35 3 0 6 38 6 84 l0 84 -77 45 c-43 24 -96 55 -118 67 -22 12 -44 26 -50 30 -12 9 -99 58 -140 78 -16 9 -49 28 -72 44 -23 15 -44 28 -46 28 -5 0 -60 31 -217 122 -52 30 -187 108 -300 173 -344 198 -450 259 -587 338 -72 42 -147 85 -165 95 -18 11 -109 63 -203 117 -178 102 -211 121 -285 163 -25 14 -58 33 -75 43 -16 10 -66 39 -110 64 -197 112 -230 134 -233 148 -2 10 12 24 40 38 24 12 55 30 70 40 46 33 62 28 198 -51 8 -5 53 -31 100 -58 47 -27 152 -88 234 -135 82 -48 151 -87 154 -87 2 0 16 -8 30 -19 15 -10 47 -29 72 -43 37 -21 221 -126 725 -416 33 -19 75 -43 93 -53 91 -52 183 -105 232 -134 30 -17 118 -68 195 -112 77 -45 156 -90 175 -102 19 -11 42 -24 50 -28 8 -4 73 -41 145 -83 181 -106 165 -105 165 -6 l0 84 -77 45 c-43 25 -92 54 -110 64 -17 10 -120 69 -227 131 -107 61 -199 112 -204 112 -5 0 -17 9 -27 20 -10 11 -21 20 -25 20 -3 0 -60 31 -126 68 -65 38 -139 80 -164 94 -25 14 -101 58 -170 98 -69 40 -138 80 -155 90 -143 82 -255 146 -280 161 -16 10 -52 30 -80 44 -27 15 -57 32 -65 39 -8 6 -24 16 -35 22 -45 25 -119 67 -280 159 -93 54 -203 116 -242 138 -40 22 -73 46 -73 53 0 14 145 104 167 104 6 0 84 -42 172 -92 88 -51 169 -97 178 -103 10 -5 85 -48 166 -95 165 -95 158 -91 352 -202 77 -44 147 -83 155 -88 8 -5 56 -32 105 -61 50 -29 104 -60 122 -70 17 -10 50 -29 72 -43 22 -15 43 -26 46 -26 3 0 31 -16 61 -35 30 -19 57 -35 60 -35 3 0 30 -16 60 -35 30 -19 57 -35 60 -35 3 0 33 -16 67 -36 199 -118 477 -274 487 -274 7 0 10 27 8 82 l-3 82 -205 118 c-113 64 -223 128 -245 142 -22 13 -58 34 -80 46 -105 59 -135 76 -203 117 -41 24 -76 43 -78 43 -3 0 -28 15 -57 33 -29 18 -59 36 -67 40 -8 4 -33 18 -55 31 -22 14 -51 31 -65 39 -46 25 -324 184 -450 257 -69 40 -143 83 -165 95 -120 66 -325 189 -325 194 1 15 19 30 75 61 33 18 67 38 76 43 12 8 64 -18 230 -113 212 -122 249 -143 312 -178 60 -35 371 -215 515 -299 79 -45 145 -83 148 -83 3 0 18 -9 32 -19 15 -10 54 -33 87 -50 33 -17 100 -56 149 -86 49 -30 90 -55 92 -55 2 0 62 -34 134 -75 72 -41 135 -75 140 -75 6 0 10 34 10 79 l0 79 -63 39 c-34 21 -72 44 -82 50 -11 7 -60 36 -110 63 -49 28 -103 59 -120 69 -26 16 -184 106 -285 163 -19 11 -120 70 -225 130 -291 169 -369 214 -385 221 -8 4 -47 27 -86 50 -39 23 -124 71 -187 107 -67 37 -117 71 -117 80 0 16 142 100 169 99 9 0 42 -15 73 -32 60 -34 249 -143 283 -164 11 -7 27 -15 35 -19 8 -4 32 -18 53 -31 21 -13 54 -33 73 -44 70 -40 111 -63 189 -107 44 -24 159 -91 255 -147 96 -56 202 -117 235 -135 106 -59 123 -68 164 -94 22 -15 44 -26 48 -26 5 0 19 -9 33 -20 44 -34 50 -27 50 59 0 96 33 69 -305 261 -16 9 -124 71 -240 137 -115 66 -227 130 -247 142 -21 11 -55 31 -75 42 -21 12 -78 45 -128 74 -49 29 -106 62 -125 73 -19 11 -110 63 -202 116 -91 53 -169 96 -172 96 -4 0 -82 -43 -174 -96 -92 -54 -180 -105 -197 -114 -16 -10 -70 -40 -119 -69 -49 -28 -91 -51 -93 -51 -2 0 -29 -16 -59 -35 -30 -19 -57 -35 -60 -35 -3 0 -30 -16 -60 -35 -30 -19 -56 -35 -59 -35 -3 0 -33 -17 -67 -38 -35 -21 -88 -52 -118 -69 -30 -16 -130 -73 -222 -126 -91 -53 -188 -108 -215 -123 -26 -15 -52 -30 -58 -34 -5 -4 -26 -17 -45 -27 -113 -63 -138 -77 -187 -109 -29 -18 -56 -34 -59 -34 -3 0 -78 -42 -167 -94 -89 -52 -189 -109 -222 -126 -33 -18 -71 -41 -85 -50 -22 -14 -97 -58 -220 -127 -19 -11 -111 -64 -205 -118 -93 -54 -184 -106 -202 -116 -17 -10 -50 -29 -72 -43 -22 -15 -42 -26 -45 -26 -2 0 -81 -45 -176 -100 -95 -56 -179 -99 -187 -96 -9 4 -13 29 -13 94 0 111 -8 102 190 213 41 23 100 57 130 74 68 41 122 72 225 130 44 25 87 50 95 55 27 17 164 96 180 103 8 4 31 17 50 28 19 12 54 32 77 45 23 13 93 54 155 90 62 37 142 82 178 102 36 19 72 40 80 46 8 6 24 16 35 22 60 33 126 70 240 136 33 20 121 70 195 113 74 42 149 85 165 95 17 10 75 43 130 74 55 32 107 63 115 71 8 7 28 19 44 25 28 10 319 176 398 226 21 13 40 24 43 24 3 0 31 16 61 35 30 19 56 35 59 35 2 0 39 20 81 45 41 25 78 45 80 45 3 0 28 15 57 33 29 18 69 41 89 50 21 10 35 23 32 30 -2 6 -35 29 -73 49 l-68 37 -119 -70 c-65 -39 -141 -83 -169 -98 -27 -15 -126 -72 -220 -126 -93 -54 -190 -109 -215 -123 -25 -14 -58 -33 -75 -42 -16 -9 -60 -36 -98 -58 -37 -23 -70 -42 -73 -42 -3 0 -30 -16 -60 -35 -30 -19 -56 -35 -58 -35 -3 0 -189 -106 -481 -275 -93 -54 -231 -133 -305 -175 -74 -43 -207 -119 -295 -170 -88 -50 -178 -102 -200 -115 -113 -64 -164 -94 -202 -118 -24 -15 -45 -27 -48 -27 -2 0 -39 -21 -82 -46 -43 -25 -107 -62 -143 -82 -36 -19 -89 -51 -119 -69 -29 -19 -60 -32 -67 -29 -11 4 -14 29 -14 101 l0 95 38 24 c20 13 127 76 237 139 110 63 274 157 365 209 91 52 185 106 210 120 25 14 90 51 145 83 55 32 129 75 165 96 36 20 169 96 295 169 127 73 258 149 293 169 34 20 191 110 349 201 157 91 302 174 322 185 32 18 184 105 252 145 14 8 60 34 102 58 68 38 94 62 69 62 -5 0 -34 16 -66 35 -32 19 -64 35 -71 35 -6 0 -48 -21 -93 -47 -136 -80 -193 -113 -357 -207 -22 -13 -116 -67 -210 -121 -93 -54 -183 -106 -200 -115 -16 -10 -58 -34 -92 -54 -136 -78 -185 -106 -189 -106 -2 0 -28 -16 -58 -35 -30 -19 -58 -35 -61 -35 -3 0 -31 -16 -61 -35 -30 -19 -56 -35 -58 -35 -3 0 -37 -19 -78 -43 -40 -24 -93 -55 -118 -69 -49 -28 -58 -33 -240 -138 -69 -39 -143 -82 -165 -94 -22 -13 -98 -57 -170 -98 -211 -123 -217 -126 -285 -165 -36 -20 -105 -60 -155 -89 -49 -28 -95 -50 -102 -47 -9 4 -13 31 -13 98 0 75 3 95 18 107 15 13 121 75 272 160 86 48 245 140 255 148 6 4 46 28 90 52 75 42 95 53 193 110 20 12 66 38 102 58 36 20 93 53 128 73 121 71 187 110 227 132 22 12 60 34 85 49 25 14 64 36 86 48 23 11 49 34 59 50 13 22 22 28 38 24 19 -5 51 12 336 177 20 11 50 28 66 37 44 23 121 68 200 116 70 42 132 77 277 157 43 23 78 45 78 49 0 4 -32 25 -72 47 l-72 40 -51 -28 c-27 -15 -66 -37 -85 -48 -19 -11 -82 -47 -140 -80 -58 -33 -124 -71 -147 -86 -24 -15 -45 -27 -48 -27 -2 0 -28 -15 -57 -33 -29 -18 -69 -41 -88 -51 -19 -9 -62 -33 -95 -53 -71 -42 -111 -65 -162 -94 -21 -12 -67 -38 -103 -59 -36 -21 -81 -47 -100 -57 -30 -17 -124 -72 -325 -189 -22 -13 -51 -29 -65 -36 -14 -7 -42 -23 -63 -36 -21 -13 -53 -31 -70 -41 -88 -49 -481 -274 -507 -290 -103 -65 -228 -131 -240 -129 -11 3 -16 20 -18 73 -5 110 1 126 56 156 26 14 97 54 157 89 61 35 130 74 155 88 25 14 79 45 120 70 41 25 90 53 109 64 196 112 685 393 711 408 8 5 49 29 90 52 41 24 83 47 92 53 10 5 61 35 115 66 54 31 197 113 317 183 121 69 223 126 228 126 5 0 8 7 6 16 -3 16 -112 83 -135 84 -7 0 -67 -32 -135 -71 -67 -40 -138 -81 -158 -92 -19 -11 -47 -27 -62 -36 -24 -15 -296 -170 -343 -197 -48 -26 -271 -155 -285 -163 -29 -19 -305 -176 -315 -180 -5 -2 -17 -9 -25 -16 -8 -7 -51 -32 -95 -55 -44 -24 -107 -60 -140 -80 -33 -20 -80 -48 -105 -62 -72 -41 -108 -62 -224 -127 -59 -34 -114 -60 -122 -57 -11 4 -14 27 -14 93 0 48 4 93 8 99 4 6 32 26 62 43 30 18 62 36 70 41 8 6 103 60 210 121 107 61 283 162 390 224 107 62 211 122 230 133 58 33 373 213 405 232 17 9 80 45 140 80 61 35 154 88 208 118 53 30 99 58 102 62 4 6 -92 68 -137 88 -4 2 -65 -30 -135 -71 -70 -41 -144 -84 -163 -94 -19 -11 -111 -64 -205 -118 -241 -140 -284 -164 -335 -193 -25 -14 -78 -45 -118 -69 -41 -24 -75 -43 -77 -43 -1 0 -64 -36 -139 -80 -76 -44 -139 -80 -141 -80 -2 0 -25 -13 -52 -29 -171 -103 -277 -162 -296 -164 -21 -2 -22 2 -25 88 -3 111 -12 101 188 215 80 46 217 124 305 175 375 215 778 447 882 507 61 36 108 69 105 74 -4 5 -33 23 -64 39 -32 17 -58 33 -58 38 0 13 -24 7 -50 -12z m-210 -1033 c0 -6 -7 -5 -15 2 -8 7 -15 17 -15 22 0 6 7 5 15 -2 8 -7 15 -17 15 -22z m-320 -1329 c0 -11 -4 -17 -10 -14 -5 3 -10 13 -10 21 0 8 5 14 10 14 6 0 10 -9 10 -21z m657 -200 c48 -28 102 -59 118 -69 45 -26 157 -91 180 -104 19 -10 413 -237 492 -283 42 -24 42 -24 193 -110 181 -103 250 -144 255 -152 2 -5 5 -351 5 -771 1 -618 -1 -765 -12 -775 -7 -7 -33 -24 -58 -37 -25 -14 -134 -76 -243 -139 -109 -63 -221 -127 -250 -142 -29 -16 -72 -41 -97 -56 -36 -23 -293 -171 -471 -272 -16 -9 -35 -22 -44 -29 -8 -6 -48 -29 -88 -50 l-74 -37 -54 29 c-30 16 -64 36 -76 44 -28 18 -86 51 -143 82 -25 13 -70 39 -100 57 -30 18 -136 79 -235 136 -99 56 -260 149 -357 206 -98 57 -180 103 -182 103 -7 0 -161 93 -178 108 -17 14 -18 64 -18 773 l0 758 33 24 c17 14 52 36 77 49 25 14 61 34 80 45 166 96 243 140 290 166 30 16 62 35 70 41 16 12 34 22 109 63 25 14 71 40 101 58 30 18 73 43 95 55 22 12 114 65 205 118 150 87 282 161 287 162 1 0 42 -23 90 -51z" transform="translate(0.000000,865.000000) scale(0.100000,-0.100000)"/><path d="M3713 4573 c3 -585 4 -611 25 -690 73 -279 266 -423 566 -423 299 0 516 145 603 403 l28 82 3 618 3 617 -256 0 -255 0 0 -540 c0 -582 -3 -629 -47 -657 -38 -25 -91 -20 -122 11 l-26 26 -3 580 -3 580 -260 0 -260 0 4 -607z" transform="translate(0.000000,865.000000) scale(0.100000,-0.100000)"/></g></svg>