<svg xmlns="http://www.w3.org/2000/svg" width="48" height="48" x="0" y="0" viewBox="0 0 48 48"><path fill="#FFCDD2" d="M27 35A5 5 0 1 0 27 45A5 5 0 1 0 27 35Z"/><path fill="#FFCDD2" d="M32.5 36A3.5 3.5 0 1 0 32.5 43 3.5 3.5 0 1 0 32.5 36zM21 35A5 5 0 1 0 21 45 5 5 0 1 0 21 35z"/><path fill="#FFCDD2" d="M15.5 36A3.5 3.5 0 1 0 15.5 43A3.5 3.5 0 1 0 15.5 36Z"/><path fill="#FF3D00" d="M20,35c0-2.209,1.791-4,4-4s4,1.791,4,4s-4,7-4,7S20,37.209,20,35z"/><path fill="#FFEB3B" d="M22,35c0-1.104,0.896-2,2-2s2,0.896,2,2s-2,3-2,3S22,36.104,22,35z"/><path fill="#D1C4E9" d="M18,13c0,2.999,0,19,0,19h12c0,0,0-15.998,0-19c0-1.581-1.664-4.544-3.24-6.998h-5.519C19.665,8.457,18,11.42,18,13z"/><g><path fill="#7E57C2" d="M35 32L30 30.002 30 18.002 35 25zM13 32L18 30.002 18 18.002 13 25zM21.241 6h5.519C25.344 3.796 24 2 24 2S22.656 3.796 21.241 6zM30 32L28 34 20 34 18 32z"/></g><g><path fill="#311B92" d="M24 12.002A2 2 0 1 0 24 16.002000000000002 2 2 0 1 0 24 12.002zM24 18A2 2 0 1 0 24 22 2 2 0 1 0 24 18zM24 24A2 2 0 1 0 24 28 2 2 0 1 0 24 24z"/></g></svg>