<svg xmlns="http://www.w3.org/2000/svg" x="0px" y="0px"
width="512" height="512"
viewBox="0 0 64 64">
<path fill="#F0F0F0" d="M52,26h-8.764L42,28.472L40.764,26H20c2.769,0,5.098,1.887,5.787,4.441C27.093,31.1,28,32.44,28,34v4.556 c1.19,0.694,2,1.97,2,3.444v0.764c0,1.525-0.847,2.896-2.211,3.578l-1.86,0.93c-0.038,0.248-0.104,0.489-0.172,0.729H52V26z"></path><path fill="#505050" d="M54,22h-4h-4.764l-2,4H52v22H25.757h0c-0.277,0.966-0.784,1.855-1.514,2.585L22.829,52H56V24 C56,22.895,55.105,22,54,22z"></path><path fill="#505050" d="M38.764,22H34H10c-1.105,0-2,0.895-2,2v3.082C9.178,26.398,10.542,26,12,26h8h20.764L38.764,22z"></path><path fill="#505050" d="M58,52h-2H22.828l-0.243,0.243c-0.174,0.174-0.359,0.331-0.549,0.481l5.68,2.557 C29.153,55.997,30,57.368,30,58.893V60h28c1.105,0,2-0.895,2-2v-4C60,52.895,59.105,52,58,52z"></path><path fill="#F0F0F0" d="M37,54H27c-1.105,0-2-0.895-2-2v0h14v0C39,53.105,38.105,54,37,54z"></path><polygon fill="#D2AA82" points="12,54 12,49.657 20,49.657 20,54 16,58"></polygon><path fill="#F0C8A0" d="M26,40h-2v-6c0-1.105-0.895-2-2-2H10c-1.105,0-2,0.895-2,2v6H6c-1.105,0-2,0.895-2,2v0.764 c0,0.758,0.428,1.45,1.106,1.789L8,46v0.343c0,1.061,0.421,2.078,1.172,2.828l1.657,1.657c0.75,0.75,1.768,1.172,2.828,1.172 h4.686c1.061,0,2.078-0.421,2.828-1.172l1.657-1.657c0.75-0.75,1.172-1.768,1.172-2.828V46l2.894-1.447 C27.572,44.214,28,43.521,28,42.764V42C28,40.895,27.105,40,26,40z"></path><path fill="#DC9600" d="M26,42L26,42c-2.209,0-4-1.791-4-4v-6h2c1.105,0,2,0.895,2,2V42z"></path><path fill="#FAB400" d="M20,28h-8c-3.314,0-6,2.686-6,6v4c0,1.105,0.895,2,2,2h5.029c3.183,0,6.235-1.264,8.485-3.515 l1.314-1.314c0.75-0.75,1.172-1.768,1.172-2.828V32C24,29.791,22.209,28,20,28z"></path><path fill="#BE7800" d="M14,42.5h-4c-0.276,0-0.5-0.224-0.5-0.5s0.224-0.5,0.5-0.5h4c0.276,0,0.5,0.224,0.5,0.5 S14.276,42.5,14,42.5z"></path><circle cx="13" cy="43" r="1" fill="#BE7800"></circle><path fill="#BE7800" d="M22,42.5h-4c-0.276,0-0.5-0.224-0.5-0.5s0.224-0.5,0.5-0.5h4c0.276,0,0.5,0.224,0.5,0.5 S22.276,42.5,22,42.5z"></path><circle cx="19" cy="43" r="1" fill="#BE7800"></circle><path fill="#BE7800" d="M16,48.5c-0.668,0-1.296-0.26-1.768-0.732l-0.586-0.586c-0.195-0.195-0.195-0.512,0-0.707 s0.512-0.195,0.707,0l0.586,0.586c0.566,0.566,1.555,0.566,2.121,0l0.586-0.586c0.195-0.195,0.512-0.195,0.707,0 s0.195,0.512,0,0.707l-0.586,0.586C17.296,48.24,16.668,48.5,16,48.5z"></path><path fill="#FA6450" d="M28,60v-1.107c0-0.758-0.428-1.45-1.106-1.789L20,54l-4,4l-4-4l-6.894,3.104 C4.428,57.443,4,58.135,4,58.893V60H28z"></path><path fill="#DC4632" d="M8,60v-1.107c0-0.758,0.428-1.45,1.106-1.789l4.136-1.862L12,54l-6.894,3.104 C4.428,57.443,4,58.135,4,58.893V60H8z"></path><path fill="#D2D2D2" d="M48,30H25.628c0.052,0.147,0.118,0.289,0.159,0.441c0.693,0.35,1.268,0.895,1.66,1.559H48V30z"></path><rect width="20" height="2" x="28" y="34" fill="#D2D2D2"></rect><path fill="#D2D2D2" d="M48,38H28v0.556c0.599,0.35,1.102,0.848,1.453,1.444H48V38z"></path><path fill="#D2D2D2" d="M48,42H30v0.764c0,0.429-0.074,0.843-0.201,1.236H48V42z"></path><path fill="#64C8F0" d="M50,4H34c-1.105,0-2,0.895-2,2v12c0,1.105,0.895,2,2,2h6l2,4l2-4h6c1.105,0,2-0.895,2-2V6 C52,4.895,51.105,4,50,4z"></path><path fill="#46AAD2" d="M34,18V6c0-1.105,0.895-2,2-2h-2c-1.105,0-2,0.895-2,2v12c0,1.105,0.895,2,2,2h2 C34.895,20,34,19.105,34,18z"></path><polygon fill="#F0F0F0" points="40,8 36,12 40,16 40,14 38,12 40,10"></polygon><polygon fill="#F0F0F0" points="44,8 48,12 44,16 44,14 46,12 44,10"></polygon>
</svg>