<svg xmlns="http://www.w3.org/2000/svg" width="534.667" height="537.333" preserveAspectRatio="xMidYMid meet" version="1.0" viewBox="0 0 401 403"><g fill="#364580" stroke="none"><path d="M1815 4009 c-632 -65 -1191 -420 -1520 -964 -377 -623 -376 -1427 3 -2055 150 -248 368 -475 612 -637 441 -293 989 -397 1513 -287 803 169 1424 818 1557 1626 70 427 5 849 -190 1233 -169 334 -435 618 -761 813 -354 213 -805 313 -1214 271z m235 -1242 c0 -7 -11 -71 -25 -142 -14 -72 -25 -132 -25 -135 0 -3 38 -4 85 -2 108 5 284 -13 332 -33 79 -33 123 -98 123 -181 0 -38 -88 -523 -106 -586 -5 -16 -20 -18 -125 -18 -65 0 -119 3 -119 8 0 4 23 129 52 278 50 260 51 273 35 297 -23 36 -72 47 -203 47 -80 0 -113 -4 -117 -12 -2 -7 -30 -149 -63 -315 l-58 -303 -122 0 -121 0 17 88 c10 48 60 297 110 555 l92 467 119 0 c91 0 119 -3 119 -13z m-656 -306 c151 -60 213 -198 176 -392 -34 -180 -192 -344 -363 -378 -29 -6 -126 -12 -216 -13 l-165 -3 -27 -145 c-16 -80 -28 -146 -29 -147 0 -2 -55 -3 -121 -3 -111 0 -121 2 -117 18 2 9 51 259 109 555 l104 538 295 -3 c282 -4 298 -5 354 -27z m1933 6 c154 -51 226 -194 194 -383 -32 -184 -175 -344 -346 -389 -41 -10 -108 -15 -220 -15 -88 0 -165 -4 -171 -8 -6 -4 -18 -47 -28 -97 -9 -49 -21 -114 -27 -142 l-10 -53 -120 0 c-65 0 -119 4 -119 8 0 4 47 251 105 547 58 297 105 543 105 548 0 5 132 7 293 5 242 -3 301 -7 344 -21z" transform="translate(0.000000,403.000000) scale(0.100000,-0.100000)"/><path d="M950 2308 c0 -6 -79 -419 -84 -442 -4 -17 2 -18 127 -14 116 3 139 7 189 30 86 40 133 125 145 259 11 132 -32 162 -239 167 -76 2 -138 2 -138 0z" transform="translate(0.000000,403.000000) scale(0.100000,-0.100000)"/><path d="M2896 2293 c-3 -10 -21 -106 -41 -213 -20 -107 -38 -203 -42 -214 -5 -17 2 -18 129 -14 122 3 138 6 192 32 72 35 108 88 132 193 20 93 14 146 -21 183 -36 38 -92 50 -229 50 -101 0 -115 -2 -120 -17z" transform="translate(0.000000,403.000000) scale(0.100000,-0.100000)"/></g></svg>