<svg xmlns="http://www.w3.org/2000/svg" width="512" height="512" x="0" y="0" viewBox="0 0 256 256"><g><g fill="none" fill-rule="nonzero" stroke="none" stroke-dashoffset="0" stroke-linecap="butt" stroke-linejoin="miter" stroke-miterlimit="10" stroke-width="1" font-family="none" font-size="none" font-weight="none" text-anchor="none" style="mix-blend-mode:normal"><g transform="translate(1,1) scale(0.99219,0.99219)"><rect width="127.742" height="179.331" x="64.129" y="38.335" fill="#58595b"/><path fill="#808285" d="M193.714,91.765h-131.428c-5.427,0 -9.826,-4.399 -9.826,-9.826v-33.778c0,-5.427 4.399,-9.826 9.826,-9.826h131.427c5.427,0 9.826,4.399 9.826,9.826v33.778c0.001,5.427 -4.398,9.826 -9.825,9.826z"/><path fill="#939598" d="M58.46,83.94c-1.1,0 -2,-0.9 -2,-2c0,-1.1 0.9,-2 2,-2c1.1,0 2,0.9 2,2c0,1.1 -0.9,2 -2,2zM58.46,75.94c-1.1,0 -2,-0.9 -2,-2v-25.78c0,-3.21 2.62,-5.82 5.83,-5.82h126.21c1.1,0 2,0.89 2,1.99c0,1.11 -0.9,2 -2,2h-126.21c-1.01,0.01 -1.83,0.83 -1.83,1.83v25.78c0,1.1 -0.9,2 -2,2z"/><circle cx="-51.146" cy="91.547" r="9.519" fill="#ffa91a" transform="rotate(-80.851)"/><path fill="#f79219" d="M85.996,56.3c0.494,1.151 0.77,2.418 0.77,3.75c0,5.258 -4.262,9.52 -9.519,9.52c-1.332,0 -2.599,-0.276 -3.75,-0.77c1.456,3.392 4.824,5.77 8.75,5.77c5.257,0 9.519,-4.262 9.519,-9.52c-0.001,-3.925 -2.378,-7.294 -5.77,-8.75z"/><path fill="#ffa91a" d="M158.792,74.569v0c-1.605,0 -2.906,-1.301 -2.906,-2.906v-13.173c0,-1.605 1.301,-2.906 2.906,-2.906v0c1.605,0 2.906,1.301 2.906,2.906v13.173c0,1.605 -1.301,2.906 -2.906,2.906z"/><path fill="#ffc91d" d="M158.792,74.569v0c-1.605,0 -2.906,-1.301 -2.906,-2.906v-13.173c0,-1.605 1.301,-2.906 2.906,-2.906v0c1.605,0 2.906,1.301 2.906,2.906v13.173c0,1.605 -1.301,2.906 -2.906,2.906z"/><path fill="#ffc91d" d="M171.689,74.569v0c-1.605,0 -2.906,-1.301 -2.906,-2.906v-13.173c0,-1.605 1.301,-2.906 2.906,-2.906v0c1.605,0 2.906,1.301 2.906,2.906v13.173c0,1.605 -1.301,2.906 -2.906,2.906z"/><path fill="#ffc91d" d="M184.586,74.569v0c-1.605,0 -2.906,-1.301 -2.906,-2.906v-13.173c0,-1.605 1.301,-2.906 2.906,-2.906v0c1.605,0 2.906,1.301 2.906,2.906v13.173c0,1.605 -1.301,2.906 -2.906,2.906z"/><g><path fill="#808285" d="M193.714,154.715h-131.428c-5.427,0 -9.826,-4.399 -9.826,-9.826v-33.778c0,-5.427 4.399,-9.826 9.826,-9.826h131.427c5.427,0 9.826,4.399 9.826,9.826v33.778c0.001,5.427 -4.398,9.826 -9.825,9.826z"/><path fill="#ffa91a" d="M91.765,128c0,5.257 -4.262,9.519 -9.519,9.519c-5.257,0 -9.519,-4.262 -9.519,-9.519c0,-5.257 4.262,-9.519 9.519,-9.519c5.257,0 9.519,4.262 9.519,9.519z"/><path fill="#f79219" d="M85.996,119.25c0.494,1.151 0.769,2.418 0.769,3.75c0,5.257 -4.262,9.519 -9.519,9.519c-1.332,0 -2.599,-0.276 -3.75,-0.77c1.456,3.392 4.824,5.77 8.75,5.77c5.257,0 9.519,-4.262 9.519,-9.519c0,-3.926 -2.377,-7.294 -5.769,-8.75z"/><path fill="#ffc91d" d="M158.792,137.493v0c-1.605,0 -2.906,-1.301 -2.906,-2.906v-13.173c0,-1.605 1.301,-2.906 2.906,-2.906v0c1.605,0 2.906,1.301 2.906,2.906v13.173c0,1.605 -1.301,2.906 -2.906,2.906z"/><path fill="#ffc91d" d="M171.689,137.493v0c-1.605,0 -2.906,-1.301 -2.906,-2.906v-13.173c0,-1.605 1.301,-2.906 2.906,-2.906v0c1.605,0 2.906,1.301 2.906,2.906v13.173c0,1.605 -1.301,2.906 -2.906,2.906z"/><path fill="#ffc91d" d="M184.586,137.493v0c-1.605,0 -2.906,-1.301 -2.906,-2.906v-13.173c0,-1.605 1.301,-2.906 2.906,-2.906v0c1.605,0 2.906,1.301 2.906,2.906v13.173c0,1.605 -1.301,2.906 -2.906,2.906z"/></g><g><path fill="#808285" d="M193.714,217.665h-131.428c-5.427,0 -9.826,-4.399 -9.826,-9.826v-33.778c0,-5.427 4.399,-9.826 9.826,-9.826h131.427c5.427,0 9.826,4.399 9.826,9.826v33.778c0.001,5.427 -4.398,9.826 -9.825,9.826z"/><path fill="#58595b" d="M193.714,164.235h-0.174v33.604c0,5.427 -4.399,9.826 -9.826,9.826h-131.254v0.174c0,5.427 4.399,9.826 9.826,9.826h131.427c5.427,0 9.826,-4.399 9.826,-9.826v-33.778c0.001,-5.427 -4.398,-9.826 -9.825,-9.826z"/><path fill="#414042" d="M197.693,165.082c0.54,1.217 0.847,2.562 0.847,3.979v33.778c0,5.427 -4.399,9.826 -9.826,9.826h-131.428c-1.418,0 -2.762,-0.306 -3.98,-0.847c1.528,3.442 4.97,5.847 8.98,5.847h131.427c5.427,0 9.826,-4.399 9.826,-9.826v-33.778c0.001,-4.009 -2.403,-7.451 -5.846,-8.979z"/><path fill="#ffa91a" d="M91.765,190.95c0,5.257 -4.262,9.519 -9.519,9.519c-5.257,0 -9.519,-4.262 -9.519,-9.519c0,-5.257 4.262,-9.519 9.519,-9.519c5.257,0 9.519,4.262 9.519,9.519z"/><path fill="#f79219" d="M85.996,182.2c0.494,1.151 0.769,2.418 0.769,3.75c0,5.257 -4.262,9.519 -9.519,9.519c-1.332,0 -2.599,-0.276 -3.75,-0.77c1.456,3.392 4.824,5.77 8.75,5.77c5.257,0 9.519,-4.262 9.519,-9.519c0,-3.925 -2.377,-7.294 -5.769,-8.75z"/><path fill="#ffc91d" d="M158.792,200.416v0c-1.605,0 -2.906,-1.301 -2.906,-2.906v-13.173c0,-1.605 1.301,-2.906 2.906,-2.906v0c1.605,0 2.906,1.301 2.906,2.906v13.173c0,1.605 -1.301,2.906 -2.906,2.906z"/><path fill="#ffc91d" d="M171.689,200.416v0c-1.605,0 -2.906,-1.301 -2.906,-2.906v-13.173c0,-1.605 1.301,-2.906 2.906,-2.906v0c1.605,0 2.906,1.301 2.906,2.906v13.173c0,1.605 -1.301,2.906 -2.906,2.906z"/><path fill="#ffc91d" d="M184.586,200.416v0c-1.605,0 -2.906,-1.301 -2.906,-2.906v-13.173c0,-1.605 1.301,-2.906 2.906,-2.906v0c1.605,0 2.906,1.301 2.906,2.906v13.173c0,1.605 -1.301,2.906 -2.906,2.906z"/></g></g></g></g></svg>